<?xml version="1.0" encoding="UTF-8"?>
<!DOCTYPE svg PUBLIC "-//W3C//DTD SVG 1.1//EN" "http://www.w3.org/Graphics/SVG/1.1/DTD/svg11.dtd">
<!-- Creator: CorelDRAW 2019 (64-Bit) -->
<svg xmlns="http://www.w3.org/2000/svg" xml:space="preserve" width="0.666661in" height="0.666661in" version="1.1" style="shape-rendering:geometricPrecision; text-rendering:geometricPrecision; image-rendering:optimizeQuality; fill-rule:evenodd; clip-rule:evenodd"
viewBox="0 0 666.66 666.66"
 xmlns:xlink="http://www.w3.org/1999/xlink">
 <defs>
  <style type="text/css">
   <![CDATA[
    .fil0 {fill:#2A9CDB}
   ]]>
  </style>
 </defs>
 <g id="Слой_x0020_1">
  <metadata id="CorelCorpID_0Corel-Layer"/>
  <path class="fil0" d="M280.37 151.45l56.37 6.83c21.61,-35.86 23.89,-41.35 -1.89,-76.08 -59.77,-10.98 -73.14,20.15 -54.48,69.24zm63.58 21.9c-20.95,15.57 -17.7,18.63 -21.82,49.56 -3.41,25.58 -5.57,41.81 -10.67,65.61 -73.64,30.81 -104.8,11.94 -115.14,54.61 13.06,7.74 -7.23,6.81 25.68,7.14l77.44 -21c65.64,-18.22 36.38,-25.69 54.73,-82.03 10.95,7.24 35.94,47.23 38.05,61.16 3,19.94 -24.21,57.32 -33.31,72.61 -35.23,59.27 -34.75,49.52 -12.5,117.29 11.66,35.49 -0.44,27.32 27.56,34.24 1.43,-1.72 2.95,-6.93 3.29,-5.81 0.34,1.1 2.48,-4.39 2.84,-5.9l-2.05 -37.27c-8.12,-26.86 -15.33,-27.3 -7.49,-53.48 4.46,-14.94 41.06,-70.95 49.48,-86.61 21.04,-39.11 0.96,-56.61 -17.68,-88.93 -15.84,-27.46 -27.76,-68.85 -58.42,-81.19zm-133.02 390.47c117.75,-47.99 51.51,-260.55 -90.82,-191.54 -122.72,59.5 -39.96,244.85 90.82,191.54zm-114.22 -77.8c-24.96,-102.68 125.17,-121.17 141.21,-36.09 18.77,99.61 -121.03,119.07 -141.21,36.09zm383.37 -122.18c-144.74,44.47 -74.03,248.02 63.65,202.61 120.7,-39.82 68.91,-243.33 -63.65,-202.61zm-43.13 122.18c-22.3,-104.06 115.83,-122.58 138.51,-43.02 28.72,100.75 -120.11,128.93 -138.51,43.02z"/>
 </g>
</svg>
