<?xml version="1.0" encoding="UTF-8"?>
<!DOCTYPE svg PUBLIC "-//W3C//DTD SVG 1.1//EN" "http://www.w3.org/Graphics/SVG/1.1/DTD/svg11.dtd">
<!-- Creator: CorelDRAW 2019 (64-Bit) -->
<svg xmlns="http://www.w3.org/2000/svg" xml:space="preserve" width="0.666661in" height="0.666661in" version="1.1" style="shape-rendering:geometricPrecision; text-rendering:geometricPrecision; image-rendering:optimizeQuality; fill-rule:evenodd; clip-rule:evenodd"
viewBox="0 0 666.66 666.66"
 xmlns:xlink="http://www.w3.org/1999/xlink">
 <defs>
  <style type="text/css">
   <![CDATA[
    .fil0 {fill:#2B9CDE}
   ]]>
  </style>
 </defs>
 <g id="Слой_x0020_1">
  <metadata id="CorelCorpID_0Corel-Layer"/>
  <path class="fil0" d="M170.97 178.49c124.32,-135.52 381.1,-87.06 378.46,177.37 -37.97,-11.16 -45.56,-36.17 -89.53,-24.06 -37.41,10.31 -15.7,224.24 -11.59,229.42 19.17,24.13 110.39,-1.31 130.24,-78.91 7.17,-28.04 5.64,-177.44 -0.43,-207.75 -53.22,-266.07 -436.19,-264.49 -489.72,-5.13 -15.73,76.21 -34.05,263.95 79.11,291.63l47 -3.61c9.29,-27.11 5.82,-131.56 5.94,-175.42 0.27,-102.58 -36.8,-53.85 -105.24,-30.61 -1.16,-76.82 18.67,-132.52 55.75,-172.94zm306.4 186.15c99.02,15.28 95.48,155.7 -0.33,168.7l-0.17 -113.7 0.49 -55zm-288.89 62.46l0.15 99.61c-97.06,-6.1 -101.06,-156.59 -0.1,-168.15l-0.05 68.54z"/>
 </g>
</svg>
