<?xml version="1.0" encoding="UTF-8"?>
<!DOCTYPE svg PUBLIC "-//W3C//DTD SVG 1.1//EN" "http://www.w3.org/Graphics/SVG/1.1/DTD/svg11.dtd">
<!-- Creator: CorelDRAW 2019 (64-Bit) -->
<svg xmlns="http://www.w3.org/2000/svg" xml:space="preserve" width="0.666661in" height="0.666661in" version="1.1" style="shape-rendering:geometricPrecision; text-rendering:geometricPrecision; image-rendering:optimizeQuality; fill-rule:evenodd; clip-rule:evenodd"
viewBox="0 0 666.66 666.66"
 xmlns:xlink="http://www.w3.org/1999/xlink">
 <defs>
  <style type="text/css">
   <![CDATA[
    .fil0 {fill:#2BA2DC}
   ]]>
  </style>
 </defs>
 <g id="Слой_x0020_1">
  <metadata id="CorelCorpID_0Corel-Layer"/>
  <path class="fil0" d="M284.49 153.98l108.06 -0.86 57.87 78.56c35.43,4.65 63.23,-0.76 92.68,10.61 5.51,81.83 12.51,173.52 -1.9,254.27 -24.05,7.98 -58.94,7.16 -90.78,7.19 -103.19,0.08 -211.87,12.52 -312.42,-10.24 -13.11,-54.76 -11.57,-206 1.96,-252.58 109.65,-31.18 44.27,46.67 144.52,-86.95zm-187.83 126.41l0.05 127.09c0.42,167.89 21.66,132.9 398.81,132.65 106.94,-0.08 88.29,-75.82 88.61,-199.93 0,-128.15 5.1,-133.66 -117.92,-143.31l-54.41 -78.88c-261.28,-1.9 -122.28,40.69 -205.7,76.33 -47.11,20.13 -109.35,-16.52 -109.45,86.04zm397.92 -19.38c-24.98,-2.72 -23.68,20.11 -20.42,40.57l36.91 3.22c2.55,-21.41 9.3,-40.97 -16.49,-43.79zm-103.24 192.24c127.09,-60.09 43.84,-267.54 -86.59,-208.03 -34.9,15.93 -45.59,16.67 -64,51.41 -49.69,93.75 47.1,205.54 150.59,156.62zm-88.32 -172.86c81.52,-50.14 173.52,87.28 76.67,138.52 -92.19,48.77 -165.94,-83.61 -76.67,-138.52z"/>
 </g>
</svg>
