<?xml version="1.0" encoding="UTF-8"?>
<!DOCTYPE svg PUBLIC "-//W3C//DTD SVG 1.1//EN" "http://www.w3.org/Graphics/SVG/1.1/DTD/svg11.dtd">
<!-- Creator: CorelDRAW 2019 (64-Bit) -->
<svg xmlns="http://www.w3.org/2000/svg" xml:space="preserve" width="8.26772in" height="11.6929in" version="1.1" style="shape-rendering:geometricPrecision; text-rendering:geometricPrecision; image-rendering:optimizeQuality; fill-rule:evenodd; clip-rule:evenodd"
viewBox="0 0 8267.72 11692.91"
 xmlns:xlink="http://www.w3.org/1999/xlink">
 <defs>
  <style type="text/css">
   <![CDATA[
    .fil0 {fill:white}
   ]]>
  </style>
 </defs>
 <g id="Слой_x0020_1">
  <metadata id="CorelCorpID_0Corel-Layer"/>
  <path class="fil0" d="M3837.82 5353.87c16,-13.65 24.1,-22.38 43.78,-34.38 8.35,-5.09 15.2,-9.3 24.24,-14.21 45.33,-24.6 103.85,-39.26 159.11,-35.92 78.86,4.77 126.46,26.25 183.57,69.67 7.87,5.98 5.19,4.95 10.37,9.48 68.85,60.17 110.48,150.91 105.12,244.94 -3.32,58.22 -16.97,103.64 -45.07,149.96 -4.73,7.8 -10.41,17.13 -15.9,23.84l-17.66 20.73c-7.05,7.88 -10.83,13.58 -19.07,20.68l-43.8 34.39c-55.02,33.66 -113.07,54.85 -183.52,50.68 -43.15,-2.55 -90.99,-12.75 -124.72,-31.21 -18.08,-9.9 -33.65,-18.65 -48.39,-29.76 -14.69,-11.08 -30.74,-24.51 -41.37,-36.78 -5.67,-6.54 -12.26,-13.02 -17.88,-20.54 -45.05,-60.3 -72.03,-126.04 -67.3,-207.16 2.64,-45.31 12.55,-88.4 31.73,-124.79 8.67,-16.45 19.43,-35.81 29.76,-48.42 11.17,-13.65 23.87,-30.02 36.97,-41.19l0.04 -0.01zm-33.21 451.35c3.75,3.85 5.88,7.7 9.64,11.62l33.69 28.56c66.95,48.17 131.93,73.69 221.98,68.91 47.93,-2.55 93.72,-15.25 131.08,-34.52 30.29,-15.62 73.53,-45.14 95.23,-71.72 3.37,-4.13 6.46,-5.91 9.64,-10.2 26.88,-36.32 34.83,-44.95 55.33,-91.7 17.76,-40.5 25.94,-94.62 23.37,-143.21 -2.43,-46.01 -15.11,-95.3 -35.06,-131.47 -10.93,-19.83 -19.98,-35.69 -32.08,-51.4 -12.67,-16.46 -24.35,-30.76 -39.87,-43.63 -12,-9.95 -18.24,-17.02 -34.29,-27.94 -61.68,-41.96 -129.96,-64.06 -208.92,-59.77 -47.43,2.58 -94.25,14.3 -131.98,34.54 -32.83,17.61 -59.06,36.06 -85.48,60.31l-19.41 21.64c-26.91,36.03 -35.06,45.3 -55.39,91.64 -35.37,80.65 -30.96,197.37 11.69,274.69 15.65,28.38 29.38,51.67 50.82,73.67l0.01 -0.02zm154.67 -398.83c-80.65,17.6 -91.79,9.35 -81.63,86.08 4.65,35.11 15.18,69.49 31.09,100.11 2.45,4.71 4.71,9.58 7.21,13.99 3.03,5.35 5.93,8.98 9,13.54 6.19,9.18 12.46,16.99 18.67,25.03l10.03 11.12c15.05,16.2 1.7,4.5 21.96,21.86 14.4,12.33 18.03,16.77 35.99,28.89 36.91,24.91 80.22,41.83 126.84,48.12 80.06,10.81 70.22,-0.67 87.9,-79.05 8.06,-35.75 -13.02,-41.19 -35.25,-50.48 -11.63,-4.86 -53.21,-24.13 -63.24,-24.24 -22.57,-0.27 -31.08,23.89 -47.7,39.54 -9.68,-4.5 -19.16,-11.3 -26.65,-16.86 -4.59,-3.41 -7.15,-5 -11.65,-9.5 -4.27,-4.28 -8.16,-6.13 -12.27,-10.28l-19.81 -23.92c-6.88,-9.27 -11.63,-17.52 -17.83,-27 15.28,-15.96 39.28,-26.05 39.7,-45.98 0.27,-12.49 -18.22,-51.24 -23.7,-64.26 -8.24,-19.56 -13.93,-44.29 -48.65,-36.71l-0 0.01zm-62.87 66.41c-1.95,-25.9 -6.66,-29.18 17.7,-34.69 70.92,-16.04 59.67,-20.61 73.59,11.98 26.35,61.72 29.44,55.41 8.46,72.67l-30.63 24.98c18.28,31.23 14.91,28.85 35.35,54.75 16.5,20.91 62.33,57.09 84.57,64.48 2.72,-2.19 6.91,-7.66 8.9,-10.34 2.52,-3.41 5.69,-7.02 8.37,-10.17 22.7,-26.65 16.12,-28.47 43.3,-16.88 9.06,3.87 16.99,7.29 26,11.1 40.53,17.14 38.61,12.96 32.87,37.66 -3.01,12.93 -10.54,50.78 -15.5,58.61 -23.12,4.43 -75.7,-6.74 -97.14,-13.81 -38.4,-12.67 -61.67,-27.64 -89.89,-49.28l-41.59 -41.89c-4.56,-6.08 -8.07,-9.91 -12.2,-15.62 -28.82,-39.81 -48.4,-93.77 -52.14,-143.55l-0.02 -0zm91.64 -23.02c-13.92,-32.59 -2.67,-28.02 -73.59,-11.98 -24.36,5.51 -19.65,8.79 -17.68,34.69 3.74,49.78 23.32,103.74 52.14,143.55 4.13,5.71 7.64,9.54 12.2,15.62l41.59 41.89c28.22,21.64 51.49,36.61 89.89,49.28 21.44,7.07 74.02,18.24 97.14,13.81 4.96,-7.83 12.49,-45.68 15.5,-58.61 5.74,-24.7 7.66,-20.52 -32.87,-37.66 -9.01,-3.81 -16.94,-7.23 -26,-11.1 -27.18,-11.59 -20.6,-9.77 -43.3,16.88 -2.68,3.15 -5.85,6.76 -8.37,10.17 -1.99,2.68 -6.18,8.15 -8.9,10.34 -22.24,-7.39 -68.07,-43.57 -84.57,-64.48 -20.44,-25.9 -17.07,-23.52 -35.35,-54.75l30.63 -24.98c20.98,-17.26 17.89,-10.95 -8.46,-72.67z"/>
 </g>
</svg>
