<?xml version="1.0" encoding="UTF-8"?>
<!DOCTYPE svg PUBLIC "-//W3C//DTD SVG 1.1//EN" "http://www.w3.org/Graphics/SVG/1.1/DTD/svg11.dtd">
<!-- Creator: CorelDRAW 2019 (64-Bit) -->
<svg xmlns="http://www.w3.org/2000/svg" xml:space="preserve" width="0.666661in" height="0.666661in" version="1.1" style="shape-rendering:geometricPrecision; text-rendering:geometricPrecision; image-rendering:optimizeQuality; fill-rule:evenodd; clip-rule:evenodd"
viewBox="0 0 666.66 666.66"
 xmlns:xlink="http://www.w3.org/1999/xlink">
 <defs>
  <style type="text/css">
   <![CDATA[
    .fil0 {fill:#339DDB}
   ]]>
  </style>
 </defs>
 <g id="Слой_x0020_1">
  <metadata id="CorelCorpID_0Corel-Layer"/>
  <path class="fil0" d="M137.17 213.09c-15.89,-26.21 -22.07,-84.67 -5.28,-121.48 47.07,-8 45.18,9.64 41.72,54.06 -0.04,0.4 -4.81,44.82 -5.09,45.68 -11.7,36.28 6.89,19.7 -31.34,21.74zm61.35 6.83c-2.43,-43.74 17.97,-98.68 -0.11,-135.26 -13.59,-27.48 -67.04,-45.41 -96.58,-7.65 -27.82,35.55 -4.32,85.76 -5.08,134.95 -1.53,97.45 -78.83,121.51 -60.65,247.43 3.9,27.04 16.7,96.29 41.22,109.69 18.57,10.15 46.52,8.5 68.65,8.3 42.36,-0.38 47.89,6.39 54.76,-26.33 -28.55,-17.69 -74.1,-8.43 -109.08,-11.73 -18.76,-56.21 -37,-112.48 -15.43,-172.25 9.74,-26.97 21.76,-42.34 32.74,-69.19 17.38,-42.49 2.07,-47.64 53.02,-46.74l23.21 44.83c14.03,29.64 6.56,25.69 34.67,30.35 15.26,-31.04 -18.73,-59.4 -21.33,-106.38zm104.01 -152.54c-72.75,39.57 16.52,117.61 -57.07,269.55 -40.27,83.13 -54.18,199 10.99,275.8l150.82 3.94c66.72,-90.31 40.1,-182.91 38.89,-237.15 -7.4,-7.2 -6.55,-3.74 -14.2,-15.47 -4.69,-7.17 -7.28,-14.23 -11.02,-22.54 -7.28,-16.14 -12.1,-27.32 -18.45,-46.93 -52.88,-70.79 59.69,-259 -99.95,-227.19zm10.69 197.51l38.94 0.7 64.43 145.73c14.85,50.39 -4.79,130.44 -24.98,170.22l-118.58 1.26c-20.15,-49.29 -41.44,-116.19 -22.97,-176.17 7.72,-25.07 49.3,-113.7 63.17,-141.74zm30.6 -34.89l-24.76 -2.43c-63.17,-130.57 67.26,-206.91 35.8,-30.11l-7.87 26.06c-0.37,-1.16 -1.96,4.01 -3.17,6.49zm124.97 -149.51c-35.29,54.48 28.84,151.68 -25.91,208.1l1.02 37.7 28.91 -4.68c3.17,-23.07 13.93,-66.78 36.42,-71.93 43.75,4.38 33,13.1 49.63,53.14 32.22,77.56 68.72,100.39 13.37,236.82 -72.47,8.47 -84.35,-15.09 -107.19,19.66 25.77,37.52 114.46,12.23 118.59,10 48.24,-29.68 59.39,-146.48 41.74,-200.85 -24.45,-75.26 -65.39,-92.03 -54.24,-196.31 18.89,-176.56 -91.11,-108.97 -102.32,-91.67zm71.4 68.22c-9.87,86.79 1.01,52.91 -22.71,64.5 -21.18,-10 -13.65,20.41 -24.01,-69.82 -8.71,-75.9 56.55,-81.12 46.72,5.31z"/>
 </g>
</svg>
