<?xml version="1.0" encoding="UTF-8"?>
<!DOCTYPE svg PUBLIC "-//W3C//DTD SVG 1.1//EN" "http://www.w3.org/Graphics/SVG/1.1/DTD/svg11.dtd">
<!-- Creator: CorelDRAW 2019 (64-Bit) -->
<svg xmlns="http://www.w3.org/2000/svg" xml:space="preserve" width="0.666661in" height="0.666661in" version="1.1" style="shape-rendering:geometricPrecision; text-rendering:geometricPrecision; image-rendering:optimizeQuality; fill-rule:evenodd; clip-rule:evenodd"
viewBox="0 0 666.66 666.66"
 xmlns:xlink="http://www.w3.org/1999/xlink">
 <defs>
  <style type="text/css">
   <![CDATA[
    .fil0 {fill:#239CE3}
   ]]>
  </style>
 </defs>
 <g id="Слой_x0020_1">
  <metadata id="CorelCorpID_0Corel-Layer"/>
  <path class="fil0" d="M423.67 272.52c-121.31,-158.4 -2.57,-170.81 -303.03,-105.06 -70.18,15.36 -52.43,47.2 -22.88,98.14 60.02,2.4 123.37,-24.34 177.36,-27.32 12.38,16.74 20.34,30.41 19.87,56.12 -25.81,16.64 -43.56,27 -68.72,42.48 -13.74,8.45 -23.7,13.5 -35.93,20.98 -20.54,12.56 -21.28,9.29 -27.61,27.62 55.14,8.54 61.8,-4.48 98.39,-27.35 29.25,-18.27 51.56,-27.52 75.36,-50.65 3.13,-36.52 -22.31,-82.22 -39.14,-104.75 -34.68,-3.98 -65.69,5.15 -94.94,11.13 -46.86,9.57 -66.3,21.85 -89.2,2.96 11.27,-22.29 49.62,-20.35 96.92,-30.24 35.7,-7.45 70.43,-17.52 107.45,-21.82 45.57,68.4 82.4,158.28 127.33,222.35 27.19,-3.14 17.3,-5.53 27.56,-8.43l29.15 -4.25c88.44,-4.19 108.7,-66.3 87.88,-118.29 -13.52,-33.76 -51.95,-54.59 -86.73,-51.44 -47.93,4.32 -56.01,36.95 -79.08,67.82zm62.83 63.7c-12.69,-15.98 -31.04,-36.51 -20.78,-63.05 8.48,-21.93 32.36,-38.08 59.53,-30.24 46.72,13.5 61.26,104.84 -38.75,93.28zm21.9 61.34c-58.87,5 -114.49,29.17 -176.46,32.44 -83.71,4.43 -297.17,-82.46 -321.94,25.8 57.49,-1.61 60.96,-37.13 156.07,-24.26 56.81,7.68 104.81,27.99 165.61,28.56 60.41,0.57 109.36,-22.53 163.43,-31.86 102.15,-17.63 102.92,32.03 165.69,29.19 -21.39,-51.51 -91.15,-65.09 -152.39,-59.87zm-4.69 56.24c-49.73,5.31 -104.69,26.21 -158.01,32.09 -137.83,15.17 -171.4,-67.6 -323.83,-3.21 -13.9,19.89 -8.26,0.74 -8.15,30.51 56.24,-1.79 58.53,-41.47 165.94,-23.63 56.26,9.35 100.66,28.42 166.56,26 57.03,-2.09 104.56,-24.14 159.52,-32.95 87,-13.95 90.62,28.35 145.18,37.4 8.26,-17.79 4.48,-5.71 6.15,-27.32 -57.16,-23.8 -68.48,-47.93 -153.36,-38.87z"/>
 </g>
</svg>
