<?xml version="1.0" encoding="UTF-8"?>
<!DOCTYPE svg PUBLIC "-//W3C//DTD SVG 1.1//EN" "http://www.w3.org/Graphics/SVG/1.1/DTD/svg11.dtd">
<!-- Creator: CorelDRAW 2019 (64-Bit) -->
<svg xmlns="http://www.w3.org/2000/svg" xml:space="preserve" width="0.666661in" height="0.666661in" version="1.1" style="shape-rendering:geometricPrecision; text-rendering:geometricPrecision; image-rendering:optimizeQuality; fill-rule:evenodd; clip-rule:evenodd"
viewBox="0 0 666.66 666.66"
 xmlns:xlink="http://www.w3.org/1999/xlink">
 <defs>
  <style type="text/css">
   <![CDATA[
    .fil0 {fill:white}
   ]]>
  </style>
 </defs>
 <g id="Слой_x0020_1">
  <metadata id="CorelCorpID_0Corel-Layer"/>
  <path class="fil0" d="M119.45 105.66c16,-13.65 24.1,-22.38 43.78,-34.38 8.35,-5.09 15.2,-9.3 24.24,-14.21 45.33,-24.6 103.85,-39.26 159.11,-35.92 78.86,4.77 126.46,26.25 183.57,69.67 7.87,5.98 5.19,4.95 10.37,9.48 68.85,60.17 110.48,150.91 105.12,244.94 -3.32,58.22 -16.97,103.64 -45.07,149.96 -4.73,7.8 -10.41,17.13 -15.9,23.84l-17.66 20.73c-7.05,7.88 -10.83,13.58 -19.07,20.68l-43.8 34.39c-55.02,33.66 -113.07,54.85 -183.52,50.68 -43.15,-2.55 -90.99,-12.75 -124.72,-31.21 -18.08,-9.9 -33.65,-18.65 -48.39,-29.76 -14.69,-11.08 -30.74,-24.51 -41.37,-36.78 -5.67,-6.54 -12.26,-13.02 -17.88,-20.54 -45.05,-60.3 -72.03,-126.04 -67.3,-207.16 2.64,-45.31 12.55,-88.4 31.73,-124.79 8.67,-16.45 19.43,-35.81 29.76,-48.42 11.17,-13.65 23.87,-30.02 37,-41.2zm-33.21 451.35c3.75,3.85 5.88,7.7 9.64,11.62l33.69 28.56c66.95,48.17 131.93,73.69 221.98,68.91 47.93,-2.55 93.72,-15.25 131.08,-34.52 30.29,-15.62 73.53,-45.14 95.23,-71.72 3.37,-4.13 6.46,-5.91 9.64,-10.2 26.88,-36.32 34.83,-44.95 55.33,-91.7 17.76,-40.5 25.94,-94.62 23.37,-143.21 -2.43,-46.01 -15.11,-95.3 -35.06,-131.47 -10.93,-19.83 -19.98,-35.69 -32.08,-51.4 -12.67,-16.46 -24.35,-30.76 -39.87,-43.63 -12,-9.95 -18.24,-17.02 -34.29,-27.94 -61.68,-41.96 -129.96,-64.06 -208.92,-59.77 -47.43,2.58 -94.25,14.3 -131.98,34.54 -32.83,17.61 -59.06,36.06 -85.48,60.31l-19.41 21.64c-26.91,36.03 -35.06,45.3 -55.39,91.64 -35.37,80.65 -30.96,197.37 11.69,274.69 15.65,28.38 29.38,51.67 50.83,73.65zm24.61 -115.76c0,17.96 -1.62,33.45 8.33,46.29 8.85,11.41 20.52,16.06 40.18,16.02l334.02 0.01c47.49,0.01 46.47,-34.42 46.47,-64.36l0 -165.98c-1.01,1.28 -10.06,7.77 -12.63,9.84 -4.57,3.69 -8.04,6.44 -12.62,9.85 -40.87,30.41 -86.57,68.35 -128.49,100.3 -4.5,3.43 -8.92,6.87 -13.25,10.25 -4.17,3.25 -7.8,6.1 -13.19,9.3 -10.76,6.4 -20.55,10.36 -34.84,10.23 -25.56,-0.23 -42.37,-15.58 -61.41,-30.67l-140.52 -109.72c-2.52,-2.04 -11.04,-8.11 -12.05,-9.4l0 168.03zm37.75 -259.15c-33.02,4.01 -53.32,41.24 -23.26,68.45l22.92 17.94c14.87,12.02 30.09,23.09 44.87,34.81l112.95 87.24c14.83,9.36 31.07,6.18 44.69,-4.07l169.96 -132.39c14.71,-10.94 27.56,-30.83 12.04,-54.46 -13.09,-19.92 -34.35,-17.82 -62.87,-17.82 -9.46,0 -311.17,-0.93 -321.29,0.3z"/>
 </g>
</svg>
