<?xml version="1.0" encoding="UTF-8"?>
<!DOCTYPE svg PUBLIC "-//W3C//DTD SVG 1.1//EN" "http://www.w3.org/Graphics/SVG/1.1/DTD/svg11.dtd">
<!-- Creator: CorelDRAW 2019 (64-Bit) -->
<svg xmlns="http://www.w3.org/2000/svg" xml:space="preserve" width="0.666661in" height="0.666661in" version="1.1" style="shape-rendering:geometricPrecision; text-rendering:geometricPrecision; image-rendering:optimizeQuality; fill-rule:evenodd; clip-rule:evenodd"
viewBox="0 0 666.66 666.66"
 xmlns:xlink="http://www.w3.org/1999/xlink">
 <defs>
  <style type="text/css">
   <![CDATA[
    .fil0 {fill:white}
   ]]>
  </style>
 </defs>
 <g id="Слой_x0020_1">
  <metadata id="CorelCorpID_0Corel-Layer"/>
  <path class="fil0" d="M119.45 105.66c16,-13.65 24.1,-22.38 43.78,-34.38 8.35,-5.09 15.2,-9.3 24.24,-14.21 45.33,-24.6 103.85,-39.26 159.11,-35.92 78.86,4.77 126.46,26.25 183.57,69.67 7.87,5.98 5.19,4.95 10.37,9.48 68.85,60.17 110.48,150.91 105.12,244.94 -3.32,58.22 -16.97,103.64 -45.07,149.96 -4.73,7.8 -10.41,17.13 -15.9,23.84l-17.66 20.73c-7.05,7.88 -10.83,13.58 -19.07,20.68l-43.8 34.39c-55.02,33.66 -113.07,54.85 -183.52,50.68 -43.15,-2.55 -90.99,-12.75 -124.72,-31.21 -18.08,-9.9 -33.65,-18.65 -48.39,-29.76 -14.69,-11.08 -30.74,-24.51 -41.37,-36.78 -5.67,-6.54 -12.26,-13.02 -17.88,-20.54 -45.05,-60.3 -72.03,-126.04 -67.3,-207.16 2.64,-45.31 12.55,-88.4 31.73,-124.79 8.67,-16.45 19.43,-35.81 29.76,-48.42 11.17,-13.65 23.87,-30.02 37,-41.2zm-33.21 451.35c3.75,3.85 5.88,7.7 9.64,11.62l33.69 28.56c66.95,48.17 131.93,73.69 221.98,68.91 47.93,-2.55 93.72,-15.25 131.08,-34.52 30.29,-15.62 73.53,-45.14 95.23,-71.72 3.37,-4.13 6.46,-5.91 9.64,-10.2 26.88,-36.32 34.83,-44.95 55.33,-91.7 17.76,-40.5 25.94,-94.62 23.37,-143.21 -2.43,-46.01 -15.11,-95.3 -35.06,-131.47 -10.93,-19.83 -19.98,-35.69 -32.08,-51.4 -12.67,-16.46 -24.35,-30.76 -39.87,-43.63 -12,-9.95 -18.24,-17.02 -34.29,-27.94 -61.68,-41.96 -129.96,-64.06 -208.92,-59.77 -47.43,2.58 -94.25,14.3 -131.98,34.54 -32.83,17.61 -59.06,36.06 -85.48,60.31l-19.41 21.64c-26.91,36.03 -35.06,45.3 -55.39,91.64 -35.37,80.65 -30.96,197.37 11.69,274.69 15.65,28.38 29.38,51.67 50.83,73.65zm169.6 -170.47l156.35 0.57c2.46,-38.79 2.59,-68.73 0,-106.98l-156.35 -0.58c-4.4,58.77 -4.35,48.56 0,106.98zm4.43 -133.89l147.5 0c-6.57,-62.31 -64.2,-213.27 -124.07,-81.72 -10.05,22.09 -20.68,55.51 -23.44,81.72zm147.49 161.38c-49.98,0 -99.96,0 -147.48,0 1.79,23.85 14.31,61.69 23.42,81.73 7.95,17.47 28.06,53.69 50.91,52.69 36.98,-1.61 69.21,-90.42 73.15,-134.41zm31.33 -26.89l103.05 -0.02c8.87,-20.66 9.1,-86.98 0,-107.17l-103.05 -0.4c2.46,38.76 2.33,68.87 -0,107.59zm-210.16 0c-4.19,-59.2 -4.49,-47.95 -0,-107.59l-103.04 0.4c-9.13,20.14 -8.92,86.41 0,107.17l103.04 0.02zm206.7 -134.48l97.24 -0.02c-5.07,-14.69 -15.73,-32.65 -23.72,-43.84 -13.62,-19.08 -18.5,-21.64 -31.81,-36.02 -19.01,-20.53 -60.84,-39.06 -88.35,-47.65 21.27,28.74 41.76,83.63 46.65,127.53zm-300.48 -0.3l97.24 0.31c4.88,-43.92 25.37,-98.8 46.64,-127.55 -38.41,12 -78.49,32.44 -104.3,63.64 -5.55,6.71 -9.57,11.33 -15.31,19.28 -8.02,11.08 -19.07,29.56 -24.26,44.31zm253.83 289.21c29.69,-9.3 45.15,-16.91 69.74,-32.89 3.89,-2.53 5.82,-4.5 9.52,-7.15l26.23 -24.99c15.52,-20.07 27.69,-33.09 38.38,-62.48l-97.24 -0.02c-6.3,46.98 -23.91,95.96 -46.64,127.54zm-253.83 -127.22c5.66,15.27 15.87,32.72 24.26,44.3 12.41,17.13 11.5,15.13 23.79,27.43 15.82,15.83 27.36,25.17 48.31,36.26 16.13,8.53 29.71,13.66 47.51,19.24 -21.76,-30.24 -41.28,-81.96 -46.63,-127.54l-97.24 0.32z"/>
 </g>
</svg>
